<svg width="122" height="20" fill="none" xmlns="http://www.w3.org/2000/svg"><path d="M7.305 15H4.277V3.242H.4V.722h10.782v2.52H7.305V15zm15.814 0l-.84-3.818-1.133-4.825h-.068L19.086 15h-3.203L12.777 4.082h2.97l1.259 4.834c.202.866.407 2.06.615 3.584h.059c.026-.495.14-1.28.341-2.354l.157-.83 1.347-5.234h3.282l1.279 5.234.117.635a24.636 24.636 0 01.303 1.826c.045.3.072.54.078.723h.059c.058-.469.162-1.11.312-1.924.15-.82.257-1.374.322-1.66l1.309-4.834h2.92L26.36 15h-3.24zm13.676-9.004c-.632 0-1.126.202-1.485.606-.358.397-.563.963-.615 1.699h4.18c-.013-.736-.205-1.302-.576-1.7-.371-.403-.873-.605-1.504-.605zm.42 9.2c-1.758 0-3.132-.486-4.121-1.456-.99-.97-1.485-2.344-1.485-4.12 0-1.83.456-3.243 1.368-4.24.918-1.002 2.184-1.503 3.798-1.503 1.543 0 2.745.44 3.604 1.318.86.88 1.289 2.093 1.289 3.643v1.445h-7.041c.032.847.283 1.507.752 1.983.469.475 1.126.713 1.973.713.657 0 1.279-.069 1.865-.206a9.33 9.33 0 001.836-.654v2.305a6.884 6.884 0 01-1.67.576c-.593.13-1.315.195-2.168.195zM55.168 15H52.19V8.623c0-.788-.14-1.377-.42-1.768-.28-.397-.726-.595-1.338-.595-.834 0-1.436.28-1.807.84-.371.553-.557 1.474-.557 2.763V15H45.09V4.082h2.275l.4 1.397h.167a3.122 3.122 0 011.367-1.192c.586-.273 1.25-.41 1.992-.41 1.27 0 2.233.345 2.89 1.035.658.684.987 1.673.987 2.969V15zm8.666-2.178c.52 0 1.146-.114 1.875-.341v2.216c-.742.332-1.654.498-2.734.498-1.192 0-2.06-.3-2.608-.898-.54-.606-.81-1.51-.81-2.715V6.318H58.13v-1.26l1.64-.995.86-2.305h1.904v2.324h3.057v2.236h-3.057v5.264c0 .423.117.736.352.938.24.201.556.302.947.302zm3.53-8.74h3.261l2.06 6.143c.176.534.297 1.165.362 1.894h.059a8.3 8.3 0 01.42-1.894l2.02-6.143h3.194l-4.619 12.314c-.423 1.14-1.029 1.993-1.816 2.56-.782.566-1.696.849-2.745.849a6.917 6.917 0 01-1.513-.166v-2.364c.358.085.749.127 1.172.127.527 0 .986-.162 1.377-.488.397-.319.706-.804.927-1.455l.176-.537-4.336-10.84zM87.053 15h-3.027V3.242H80.15V.722h10.782v2.52h-3.877V15zm15.815 0l-.84-3.818-1.133-4.825h-.068L98.836 15h-3.203L92.527 4.082h2.97l1.259 4.834c.202.866.407 2.06.615 3.584h.059c.026-.495.14-1.28.341-2.354l.157-.83 1.347-5.234h3.282l1.279 5.234.117.635a24.642 24.642 0 01.303 1.826c.045.3.071.54.078.723h.059c.058-.469.162-1.11.312-1.924.15-.82.257-1.374.322-1.66l1.309-4.834h2.92L106.111 15h-3.242zm11.527-5.479c0 1.081.176 1.898.528 2.452.358.553.937.83 1.738.83.794 0 1.364-.274 1.709-.82.352-.554.527-1.374.527-2.462 0-1.08-.175-1.89-.527-2.431-.351-.54-.928-.81-1.728-.81-.795 0-1.368.27-1.719.81-.352.534-.528 1.344-.528 2.431zm7.549 0c0 1.778-.468 3.168-1.406 4.17-.937 1.003-2.243 1.504-3.916 1.504-1.048 0-1.973-.228-2.773-.683a4.612 4.612 0 01-1.846-1.983c-.43-.86-.645-1.862-.645-3.008 0-1.783.466-3.17 1.397-4.16.931-.99 2.239-1.484 3.926-1.484 1.048 0 1.972.228 2.773.684a4.564 4.564 0 011.846 1.962c.429.853.644 1.853.644 2.998z" fill="#202020"/></svg>