<svg width="168" height="37" fill="none" xmlns="http://www.w3.org/2000/svg"><g clip-path="url(#clip0_639_655)"><path d="M31.025 9.132h-5.983V7.184C25.042 3.223 21.82 0 17.858 0s-7.184 3.223-7.184 7.184v1.948H5.519a.787.787 0 00-.788.787L.307 36.213a.787.787 0 00.787.787h34.812a.788.788 0 00.788-.787L31.812 9.919a.787.787 0 00-.787-.787zM12.248 7.184a5.616 5.616 0 015.61-5.61 5.617 5.617 0 015.61 5.61v1.948h-11.22V7.184zm22.87 28.241H1.882l4.424-24.719h4.368v3.467a1.414 1.414 0 00-.215 2.18 1.417 1.417 0 101.789-2.18v-3.467h11.22v3.467a1.417 1.417 0 101.574 0v-3.467h5.197l4.88 24.72z" fill="#202020"/></g><path d="M18.888 28H17.78v-7.123c0-.592.018-1.153.055-1.682a7.214 7.214 0 01-.321.301c-.119.105-.661.55-1.627 1.333l-.602-.78 2.646-2.043h.957V28zm37.885-4.818l3.761-7.032h.967l-4.28 7.884V29h-.923v-4.895L52 16.15h1.028l3.745 7.032zm20.058-.624c0 2.039-.51 3.653-1.53 4.842-1.019 1.184-2.425 1.776-4.218 1.776-1.787 0-3.19-.592-4.21-1.776-1.02-1.19-1.53-2.81-1.53-4.86 0-2.045.513-3.653 1.539-4.825 1.03-1.178 2.437-1.767 4.218-1.767 1.793 0 3.197.592 4.21 1.776 1.014 1.177 1.52 2.789 1.52 4.834zm-10.512 0c0 1.84.41 3.263 1.23 4.271.82 1.002 1.999 1.503 3.534 1.503 1.547 0 2.727-.498 3.542-1.494.82-.996 1.23-2.423 1.23-4.28 0-1.852-.41-3.27-1.23-4.254-.815-.99-1.99-1.486-3.525-1.486-1.529 0-2.71.498-3.542 1.494-.826.997-1.239 2.412-1.239 4.246zm25.622-6.408v8.315c0 1.476-.428 2.63-1.283 3.463-.856.832-2.048 1.248-3.577 1.248-1.489 0-2.652-.416-3.49-1.248-.832-.838-1.248-2.004-1.248-3.498v-8.28h.906v8.315c0 1.236.342 2.2 1.028 2.891.686.686 1.655 1.029 2.91 1.029 1.224 0 2.173-.337 2.847-1.011.674-.68 1.01-1.62 1.01-2.821V16.15h.897zm7.103 7.251V29h-.896V16.15h3.058c1.594 0 2.772.296 3.534.888.761.586 1.142 1.47 1.142 2.654 0 .862-.228 1.588-.685 2.18-.451.592-1.14 1.017-2.066 1.274l3.49 5.854h-1.073l-3.313-5.599h-3.19zm0-.773h2.452c1.084 0 1.925-.24 2.523-.72.598-.487.896-1.202.896-2.145 0-.979-.293-1.69-.878-2.136-.586-.445-1.541-.668-2.866-.668h-2.127v5.669zm25.369-5.854c-1.611 0-2.88.516-3.806 1.547-.925 1.031-1.388 2.444-1.388 4.237 0 1.834.436 3.257 1.309 4.271.873 1.014 2.121 1.52 3.744 1.52 1.079 0 2.069-.137 2.971-.413v.791c-.849.3-1.91.449-3.181.449-1.805 0-3.226-.583-4.263-1.75-1.037-1.165-1.556-2.794-1.556-4.886 0-1.307.246-2.458.738-3.454.498-.996 1.21-1.764 2.136-2.303.932-.545 2.013-.817 3.243-.817 1.254 0 2.376.234 3.367.703l-.361.808a6.519 6.519 0 00-2.953-.703zm14.583 7.69h-5.221L131.982 29h-.993l5.168-12.902h.571L141.791 29h-1.011l-1.784-4.535zm-4.896-.808h4.597l-1.749-4.632a22.775 22.775 0 01-.527-1.511 14.153 14.153 0 01-.519 1.529l-1.802 4.614zm13.115-.255V29h-.896V16.15h3.059c1.593 0 2.771.296 3.533.888.761.586 1.142 1.47 1.142 2.654 0 .862-.228 1.588-.685 2.18-.451.592-1.14 1.017-2.066 1.274l3.49 5.854h-1.073l-3.313-5.599h-3.191zm0-.773h2.453c1.084 0 1.924-.24 2.522-.72.598-.487.897-1.202.897-2.145 0-.979-.293-1.69-.879-2.136-.586-.445-1.541-.668-2.866-.668h-2.127v5.669zM163.073 29h-.906V16.994h-4.174v-.844h9.254v.844h-4.174V29z" fill="#202020"/><defs><clipPath id="clip0_639_655"><path fill="#fff" d="M0 0h37v37H0z"/></clipPath></defs></svg>