<svg width="16" height="16" fill="none" xmlns="http://www.w3.org/2000/svg"><path d="M13.99 4.092l-.509-1.528a.983.983 0 00-.934-.672H10.19v-.548C10.19.603 9.587 0 8.846 0h-1.38c-.741 0-1.344.603-1.344 1.344v.548H3.453c-.424 0-.8.27-.934.672l-.51 1.528a.469.469 0 00.445.617h.174l1.215 10.874a.469.469 0 00.465.417h7.326a.469.469 0 00.466-.417L13.315 4.71h.231a.468.468 0 00.445-.617zM7.06 1.344c0-.224.181-.407.405-.407h1.381c.224 0 .407.183.407.407v.548H7.059v-.548zm4.155 13.718H4.728L3.57 4.71h8.801l-1.157 10.354zm-8.11-11.29l.303-.91a.047.047 0 01.045-.033h9.094a.047.047 0 01.045.032l.304.91H3.105z" fill="#202020"/></svg>